<svg id="email" xmlns="http://www.w3.org/2000/svg" width="18.909" height="13" viewBox="0 0 18.909 13">
  <g id="Group_31" data-name="Group 31" transform="translate(12.751 2.537)">
    <g id="Group_30" data-name="Group 30">
      <path id="Path_9" data-name="Path 9" d="M339.392,148.953l6.158,3.893V144.9Z" transform="translate(-339.392 -144.896)"/>
    </g>
  </g>
  <g id="Group_33" data-name="Group 33" transform="translate(0 2.537)">
    <g id="Group_32" data-name="Group 32">
      <path id="Path_10" data-name="Path 10" d="M0,144.9v7.951l6.158-3.893Z" transform="translate(0 -144.896)"/>
    </g>
  </g>
  <g id="Group_35" data-name="Group 35" transform="translate(0.034 0)">
    <g id="Group_34" data-name="Group 34">
      <path id="Path_11" data-name="Path 11" d="M18.654,80H2.107a1.154,1.154,0,0,0-1.147.972l9.42,5.995,9.42-5.995A1.154,1.154,0,0,0,18.654,80Z" transform="translate(-0.96 -80)"/>
    </g>
  </g>
  <g id="Group_37" data-name="Group 37" transform="translate(0.037 7.503)">
    <g id="Group_36" data-name="Group 36">
      <path id="Path_12" data-name="Path 12" d="M12.44,277.921l-1.673,1.064a.611.611,0,0,1-.65,0L8.444,277.92l-7.42,4.534a1.153,1.153,0,0,0,1.144.964H18.716a1.153,1.153,0,0,0,1.144-.964Z" transform="translate(-1.024 -277.92)"/>
    </g>
  </g>
</svg>
