<svg xmlns="http://www.w3.org/2000/svg" width="18.782" height="18" viewBox="0 0 18.782 18">
  <path id="github" d="M9.391.5A9.31,9.31,0,0,0,0,9.728a9.244,9.244,0,0,0,6.421,8.756c.47.087.642-.2.642-.444,0-.219-.008-.8-.012-1.569-2.612.556-3.163-1.238-3.163-1.238a2.46,2.46,0,0,0-1.045-1.35c-.851-.572.066-.56.066-.56a1.965,1.965,0,0,1,1.438.951,2.022,2.022,0,0,0,2.735.768,1.954,1.954,0,0,1,.595-1.234C5.592,13.576,3.4,12.783,3.4,9.247a3.526,3.526,0,0,1,.967-2.476,3.229,3.229,0,0,1,.082-2.442s.787-.247,2.583.946a9,9,0,0,1,4.7,0c1.784-1.193,2.571-.946,2.571-.946a3.318,3.318,0,0,1,.094,2.442,3.54,3.54,0,0,1,.963,2.476c0,3.545-2.2,4.325-4.285,4.552a2.19,2.19,0,0,1,.634,1.708c0,1.235-.012,2.227-.012,2.527,0,.242.164.531.646.438a9.216,9.216,0,0,0,6.445-8.744A9.311,9.311,0,0,0,9.391.5Z" transform="translate(0 -0.5)"/>
</svg>
