<svg id="linkedin" xmlns="http://www.w3.org/2000/svg" width="14.861" height="14.861" viewBox="0 0 14.861 14.861">
  <path id="Path_17" data-name="Path 17" d="M18.09,17.745h0v-5.45c0-2.666-.574-4.72-3.691-4.72a3.236,3.236,0,0,0-2.915,1.6h-.043V7.823H8.489v9.922h3.078V12.832c0-1.294.245-2.544,1.847-2.544,1.578,0,1.6,1.476,1.6,2.627v4.831Z" transform="translate(-3.232 -2.884)"/>
  <path id="Path_18" data-name="Path 18" d="M.4,7.977H3.477V17.9H.4Z" transform="translate(-0.151 -3.037)"/>
  <path id="Path_19" data-name="Path 19" d="M1.785,0A1.793,1.793,0,1,0,3.569,1.785,1.785,1.785,0,0,0,1.785,0Z"/>
</svg>
