<svg id="call" xmlns="http://www.w3.org/2000/svg" width="14.92" height="14.92" viewBox="0 0 14.92 14.92">
  <g id="Group_29" data-name="Group 29">
    <path id="Path_8" data-name="Path 8" d="M13.723,9.793a8.471,8.471,0,0,1-2.66-.424,1.216,1.216,0,0,0-1.183.249L8.2,10.885A9.271,9.271,0,0,1,4.034,6.718L5.263,5.084a1.206,1.206,0,0,0,.3-1.222A8.484,8.484,0,0,1,5.134,1.2,1.2,1.2,0,0,0,3.937,0H1.2A1.2,1.2,0,0,0,0,1.2,13.738,13.738,0,0,0,13.723,14.92a1.2,1.2,0,0,0,1.2-1.2V10.99A1.2,1.2,0,0,0,13.723,9.793Z"/>
  </g>
</svg>
