<svg id="cake" xmlns="http://www.w3.org/2000/svg" width="18.245" height="18.245" viewBox="0 0 18.245 18.245">
  <g id="Group_22" data-name="Group 22" transform="translate(2.281 4.561)">
    <g id="Group_21" data-name="Group 21">
      <path id="Path_4" data-name="Path 4" d="M75.973,129.14H71.412V128h-1.14v1.14H65.71a1.711,1.711,0,0,0-1.71,1.71v1.71H77.684v-1.71A1.711,1.711,0,0,0,75.973,129.14Z" transform="translate(-64 -128)"/>
    </g>
  </g>
  <g id="Group_24" data-name="Group 24" transform="translate(0 10.263)">
    <g id="Group_23" data-name="Group 23">
      <path id="Path_5" data-name="Path 5" d="M17.1,288H1.14A1.141,1.141,0,0,0,0,289.14v1.14a2.281,2.281,0,0,0,4.561,0,2.281,2.281,0,0,0,4.561,0,2.281,2.281,0,0,0,4.561,0,2.281,2.281,0,0,0,4.561,0v-1.14A1.141,1.141,0,0,0,17.1,288Z" transform="translate(0 -288)"/>
    </g>
  </g>
  <g id="Group_26" data-name="Group 26" transform="translate(0 15.075)">
    <g id="Group_25" data-name="Group 25">
      <path id="Path_6" data-name="Path 6" d="M15.964,423.929a3.406,3.406,0,0,1-2.281-.873,3.414,3.414,0,0,1-4.561,0,3.414,3.414,0,0,1-4.561,0A3.391,3.391,0,0,1,0,423.04v2.03a1.141,1.141,0,0,0,1.14,1.14H17.1a1.141,1.141,0,0,0,1.14-1.14v-2.03A3.393,3.393,0,0,1,15.964,423.929Z" transform="translate(0 -423.04)"/>
    </g>
  </g>
  <g id="Group_28" data-name="Group 28" transform="translate(7.982)">
    <g id="Group_27" data-name="Group 27">
      <path id="Path_7" data-name="Path 7" d="M225.14,0A7.543,7.543,0,0,0,224,2.281a1.14,1.14,0,1,0,2.281,0A7.543,7.543,0,0,0,225.14,0Z" transform="translate(-224)"/>
    </g>
  </g>
</svg>
